dataset
version=1
nRows=16
nColumns=39
inDegrees=no
endheader
time	sternoclavicular_r2	sternoclavicular_r3	unrotscap_r3	unrotscap_r2	acromioclavicular_r2	acromioclavicular_r3	acromioclavicular_r1	unrothum_r1	unrothum_r3	unrothum_r2	elv_angle	shoulder_elv	shoulder1_r2	shoulder_rot	elbow_flexion	pro_sup	deviation	flexion	cmc_abduction	cmc_flexion	mp_flexion	ip_flexion	mcp2_flexion	mcp2_abduction	pm2_flexion	md2_flexion	mcp3_flexion	mcp3_abduction	pm3_flexion	md3_flexion	mcp4_flexion	mcp4_abduction	pm4_flexion	md4_flexion	mcp5_flexion	mcp5_abduction	pm5_flexion	md5_flexion
0.000000	-0.013276	-0.289845	0.142500	0.030702	0.008782	0.101647	-0.100922	-0.092214	0.000303	0.072000	0.035503	0.027437	0.146525	0.146525	0.934716	0.920294	0.000000	0.000000	0.000000	0.000000	0.000000	0.000000	0.000000	0.000000	0.000000	0.000000	0.000000	0.000000	0.000000	0.000000	0.000000	0.000000	0.000000	0.000000	0.000000	0.000000	0.000000	0.000000
0.005000	-0.013270	-0.289836	0.142525	0.030689	0.008770	0.101641	-0.100960	-0.092208	0.000239	0.071991	0.035476	0.027437	0.146525	0.146525	0.935165	0.923769	0.000000	0.000000	0.000000	0.000000	0.000000	0.000000	0.000000	0.000000	0.000000	0.000000	0.000000	0.000000	0.000000	0.000000	0.000000	0.000000	0.000000	0.000000	0.000000	0.000000	0.000000	0.000000
0.010000	-0.013264	-0.289823	0.142535	0.030674	0.008759	0.101625	-0.100986	-0.092220	0.000201	0.071985	0.035457	0.027437	0.146525	0.146525	0.935606	0.927215	0.000000	0.000000	0.000000	0.000000	0.000000	0.000000	0.000000	0.000000	0.000000	0.000000	0.000000	0.000000	0.000000	0.000000	0.000000	0.000000	0.000000	0.000000	0.000000	0.000000	0.000000	0.000000
0.015000	-0.013259	-0.289807	0.142535	0.030662	0.008750	0.101605	-0.101004	-0.092241	0.000179	0.071982	0.035444	0.027437	0.146525	0.146525	0.936038	0.930633	0.000000	0.000000	0.000000	0.000000	0.000000	0.000000	0.000000	0.000000	0.000000	0.000000	0.000000	0.000000	0.000000	0.000000	0.000000	0.000000	0.000000	0.000000	0.000000	0.000000	0.000000	0.000000
0.020000	-0.013254	-0.289788	0.142530	0.030651	0.008744	0.101584	-0.101016	-0.092267	0.000170	0.071983	0.035436	0.027437	0.146525	0.146525	0.936459	0.934023	0.000000	0.000000	0.000000	0.000000	0.000000	0.000000	0.000000	0.000000	0.000000	0.000000	0.000000	0.000000	0.000000	0.000000	0.000000	0.000000	0.000000	0.000000	0.000000	0.000000	0.000000	0.000000
0.025000	-0.013249	-0.289768	0.142521	0.030644	0.008741	0.101562	-0.101023	-0.092293	0.000169	0.071986	0.035434	0.027437	0.146525	0.146525	0.936869	0.937385	0.000000	0.000000	0.000000	0.000000	0.000000	0.000000	0.000000	0.000000	0.000000	0.000000	0.000000	0.000000	0.000000	0.000000	0.000000	0.000000	0.000000	0.000000	0.000000	0.000000	0.000000	0.000000
0.030000	-0.013245	-0.289746	0.142509	0.030640	0.008742	0.101541	-0.101024	-0.092320	0.000176	0.071992	0.035437	0.027437	0.146525	0.146525	0.937265	0.940719	0.000000	0.000000	0.000000	0.000000	0.000000	0.000000	0.000000	0.000000	0.000000	0.000000	0.000000	0.000000	0.000000	0.000000	0.000000	0.000000	0.000000	0.000000	0.000000	0.000000	0.000000	0.000000
0.035000	-0.013242	-0.289722	0.142493	0.030640	0.008745	0.101522	-0.101022	-0.092345	0.000191	0.072000	0.035446	0.027437	0.146525	0.146525	0.937647	0.944027	0.000000	0.000000	0.000000	0.000000	0.000000	0.000000	0.000000	0.000000	0.000000	0.000000	0.000000	0.000000	0.000000	0.000000	0.000000	0.000000	0.000000	0.000000	0.000000	0.000000	0.000000	0.000000
0.040000	-0.013239	-0.289697	0.142476	0.030644	0.008753	0.101504	-0.101014	-0.092368	0.000213	0.072012	0.035459	0.027437	0.146525	0.146525	0.938012	0.947308	0.000000	0.000000	0.000000	0.000000	0.000000	0.000000	0.000000	0.000000	0.000000	0.000000	0.000000	0.000000	0.000000	0.000000	0.000000	0.000000	0.000000	0.000000	0.000000	0.000000	0.000000	0.000000
0.045000	-0.013238	-0.289670	0.142455	0.030651	0.008764	0.101488	-0.101002	-0.092389	0.000241	0.072027	0.035478	0.027437	0.146525	0.146525	0.938359	0.950563	0.000000	0.000000	0.000000	0.000000	0.000000	0.000000	0.000000	0.000000	0.000000	0.000000	0.000000	0.000000	0.000000	0.000000	0.000000	0.000000	0.000000	0.000000	0.000000	0.000000	0.000000	0.000000
0.050000	-0.013237	-0.289641	0.142433	0.030663	0.008778	0.101473	-0.100985	-0.092407	0.000277	0.072044	0.035502	0.027437	0.146525	0.146525	0.938688	0.953791	0.000000	0.000000	0.000000	0.000000	0.000000	0.000000	0.000000	0.000000	0.000000	0.000000	0.000000	0.000000	0.000000	0.000000	0.000000	0.000000	0.000000	0.000000	0.000000	0.000000	0.000000	0.000000
0.055000	-0.013237	-0.289611	0.142408	0.030679	0.008796	0.101462	-0.100964	-0.092422	0.000320	0.072064	0.035531	0.027437	0.146525	0.146525	0.938995	0.956993	0.000000	0.000000	0.000000	0.000000	0.000000	0.000000	0.000000	0.000000	0.000000	0.000000	0.000000	0.000000	0.000000	0.000000	0.000000	0.000000	0.000000	0.000000	0.000000	0.000000	0.000000	0.000000
0.060000	-0.013238	-0.289579	0.142381	0.030699	0.008818	0.101452	-0.100937	-0.092433	0.000369	0.072087	0.035565	0.027437	0.146525	0.146525	0.939281	0.960170	0.000000	0.000000	0.000000	0.000000	0.000000	0.000000	0.000000	0.000000	0.000000	0.000000	0.000000	0.000000	0.000000	0.000000	0.000000	0.000000	0.000000	0.000000	0.000000	0.000000	0.000000	0.000000
0.065000	-0.013240	-0.289545	0.142352	0.030723	0.008844	0.101445	-0.100905	-0.092442	0.000426	0.072112	0.035605	0.027437	0.146525	0.146525	0.939543	0.963321	0.000000	0.000000	0.000000	0.000000	0.000000	0.000000	0.000000	0.000000	0.000000	0.000000	0.000000	0.000000	0.000000	0.000000	0.000000	0.000000	0.000000	0.000000	0.000000	0.000000	0.000000	0.000000
0.070000	-0.013242	-0.289510	0.142320	0.030751	0.008873	0.101441	-0.100868	-0.092446	0.000490	0.072139	0.035650	0.027437	0.146525	0.146525	0.939781	0.966447	0.000000	0.000000	0.000000	0.000000	0.000000	0.000000	0.000000	0.000000	0.000000	0.000000	0.000000	0.000000	0.000000	0.000000	0.000000	0.000000	0.000000	0.000000	0.000000	0.000000	0.000000	0.000000
0.075000	-0.013246	-0.289473	0.142285	0.030783	0.008905	0.101440	-0.100825	-0.092447	0.000561	0.072170	0.035700	0.027437	0.146525	0.146525	0.939992	0.969547	0.000000	0.000000	0.000000	0.000000	0.000000	0.000000	0.000000	0.000000	0.000000	0.000000	0.000000	0.000000	0.000000	0.000000	0.000000	0.000000	0.000000	0.000000	0.000000	0.000000	0.000000	0.000000
